<?xml version="1.0" encoding="utf-8" ?>
<svg baseProfile="tiny" height="1024" version="1.2" width="1536" xmlns="http://www.w3.org/2000/svg" xmlns:ev="http://www.w3.org/2001/xml-events" xmlns:xlink="http://www.w3.org/1999/xlink"><defs /><line stroke="rgb(80%,80%,80%)" stroke-width="1" x1="1126" x2="1184" y1="435" y2="459" /><line stroke="rgb(80%,80%,80%)" stroke-width="1" x1="1126" x2="1021" y1="435" y2="389" /><line stroke="rgb(80%,80%,80%)" stroke-width="1" x1="1126" x2="1194" y1="435" y2="540" /><line stroke="rgb(80%,80%,80%)" stroke-width="1" x1="1126" x2="1059" y1="435" y2="524" /><line stroke="rgb(80%,80%,80%)" stroke-width="1" x1="1126" x2="1248" y1="435" y2="384" /><line stroke="rgb(80%,80%,80%)" stroke-width="1" x1="1126" x2="1248" y1="435" y2="384" /><line stroke="rgb(80%,80%,80%)" stroke-width="1" x1="860" x2="955" y1="270" y2="276" /><line stroke="rgb(80%,80%,80%)" stroke-width="1" x1="860" x2="840" y1="270" y2="166" /><line stroke="rgb(80%,80%,80%)" stroke-width="1" x1="860" x2="776" y1="270" y2="345" /><line stroke="rgb(80%,80%,80%)" stroke-width="1" x1="860" x2="995" y1="270" y2="269" /><line stroke="rgb(80%,80%,80%)" stroke-width="1" x1="860" x2="815" y1="270" y2="270" /><line stroke="rgb(80%,80%,80%)" stroke-width="1" x1="860" x2="794" y1="270" y2="392" /><line stroke="rgb(80%,80%,80%)" stroke-width="1" x1="860" x2="766" y1="270" y2="293" /><line stroke="rgb(80%,80%,80%)" stroke-width="1" x1="1130" x2="1180" y1="71" y2="14" /><line stroke="rgb(80%,80%,80%)" stroke-width="1" x1="1130" x2="1086" y1="71" y2="138" /><line stroke="rgb(80%,80%,80%)" stroke-width="1" x1="1130" x2="1017" y1="71" y2="40" /><line stroke="rgb(80%,80%,80%)" stroke-width="1" x1="1130" x2="1051" y1="71" y2="134" /><line stroke="rgb(80%,80%,80%)" stroke-width="1" x1="1130" x2="1056" y1="71" y2="47" /><line stroke="rgb(80%,80%,80%)" stroke-width="1" x1="1130" x2="1020" y1="71" y2="95" /><line stroke="rgb(80%,80%,80%)" stroke-width="1" x1="1130" x2="1266" y1="71" y2="85" /><line stroke="rgb(80%,80%,80%)" stroke-width="1" x1="1130" x2="1153" y1="71" y2="52" /><line stroke="rgb(80%,80%,80%)" stroke-width="1" x1="1130" x2="1224" y1="71" y2="123" /><line stroke="rgb(80%,80%,80%)" stroke-width="1" x1="1044" x2="960" y1="614" y2="738" /><line stroke="rgb(80%,80%,80%)" stroke-width="1" x1="1044" x2="1059" y1="614" y2="524" /><line stroke="rgb(80%,80%,80%)" stroke-width="1" x1="1044" x2="1012" y1="614" y2="645" /><line stroke="rgb(80%,80%,80%)" stroke-width="1" x1="1044" x2="972" y1="614" y2="744" /><line stroke="rgb(80%,80%,80%)" stroke-width="1" x1="1044" x2="1136" y1="614" y2="612" /><line stroke="rgb(80%,80%,80%)" stroke-width="1" x1="121" x2="187" y1="466" y2="379" /><line stroke="rgb(80%,80%,80%)" stroke-width="1" x1="121" x2="219" y1="466" y2="565" /><line stroke="rgb(80%,80%,80%)" stroke-width="1" x1="121" x2="122" y1="466" y2="400" /><line stroke="rgb(80%,80%,80%)" stroke-width="1" x1="121" x2="143" y1="466" y2="608" /><line stroke="rgb(80%,80%,80%)" stroke-width="1" x1="1238" x2="1184" y1="330" y2="459" /><line stroke="rgb(80%,80%,80%)" stroke-width="1" x1="1238" x2="1297" y1="330" y2="387" /><line stroke="rgb(80%,80%,80%)" stroke-width="1" x1="1238" x2="1254" y1="330" y2="189" /><line stroke="rgb(80%,80%,80%)" stroke-width="1" x1="1238" x2="1248" y1="330" y2="384" /><line stroke="rgb(80%,80%,80%)" stroke-width="1" x1="1238" x2="1282" y1="330" y2="358" /><line stroke="rgb(80%,80%,80%)" stroke-width="1" x1="1238" x2="1248" y1="330" y2="384" /><line stroke="rgb(80%,80%,80%)" stroke-width="1" x1="1482" x2="1396" y1="87" y2="99" /><line stroke="rgb(80%,80%,80%)" stroke-width="1" x1="1482" x2="1528" y1="87" y2="130" /><line stroke="rgb(80%,80%,80%)" stroke-width="1" x1="1482" x2="1363" y1="87" y2="91" /><line stroke="rgb(80%,80%,80%)" stroke-width="1" x1="1482" x2="1411" y1="87" y2="1" /><line stroke="rgb(80%,80%,80%)" stroke-width="1" x1="1482" x2="1513" y1="87" y2="230" /><line stroke="rgb(80%,80%,80%)" stroke-width="1" x1="1482" x2="1495" y1="87" y2="232" /><line stroke="rgb(80%,80%,80%)" stroke-width="1" x1="1396" x2="1337" y1="99" y2="21" /><line stroke="rgb(80%,80%,80%)" stroke-width="1" x1="1396" x2="1528" y1="99" y2="130" /><line stroke="rgb(80%,80%,80%)" stroke-width="1" x1="1396" x2="1363" y1="99" y2="91" /><line stroke="rgb(80%,80%,80%)" stroke-width="1" x1="1396" x2="1411" y1="99" y2="1" /><line stroke="rgb(80%,80%,80%)" stroke-width="1" x1="1396" x2="1266" y1="99" y2="85" /><line stroke="rgb(80%,80%,80%)" stroke-width="1" x1="871" x2="856" y1="663" y2="560" /><line stroke="rgb(80%,80%,80%)" stroke-width="1" x1="871" x2="960" y1="663" y2="738" /><line stroke="rgb(80%,80%,80%)" stroke-width="1" x1="871" x2="863" y1="663" y2="742" /><line stroke="rgb(80%,80%,80%)" stroke-width="1" x1="871" x2="1012" y1="663" y2="645" /><line stroke="rgb(80%,80%,80%)" stroke-width="1" x1="871" x2="972" y1="663" y2="744" /><line stroke="rgb(80%,80%,80%)" stroke-width="1" x1="871" x2="729" y1="663" y2="671" /><line stroke="rgb(80%,80%,80%)" stroke-width="1" x1="871" x2="883" y1="663" y2="609" /><line stroke="rgb(80%,80%,80%)" stroke-width="1" x1="130" x2="252" y1="661" y2="747" /><line stroke="rgb(80%,80%,80%)" stroke-width="1" x1="130" x2="216" y1="661" y2="763" /><line stroke="rgb(80%,80%,80%)" stroke-width="1" x1="130" x2="230" y1="661" y2="748" /><line stroke="rgb(80%,80%,80%)" stroke-width="1" x1="130" x2="1" y1="661" y2="641" /><line stroke="rgb(80%,80%,80%)" stroke-width="1" x1="130" x2="219" y1="661" y2="565" /><line stroke="rgb(80%,80%,80%)" stroke-width="1" x1="130" x2="143" y1="661" y2="608" /><line stroke="rgb(80%,80%,80%)" stroke-width="1" x1="1332" x2="1437" y1="769" y2="805" /><line stroke="rgb(80%,80%,80%)" stroke-width="1" x1="1332" x2="1267" y1="769" y2="831" /><line stroke="rgb(80%,80%,80%)" stroke-width="1" x1="1332" x2="1363" y1="769" y2="797" /><line stroke="rgb(80%,80%,80%)" stroke-width="1" x1="1332" x2="1354" y1="769" y2="639" /><line stroke="rgb(80%,80%,80%)" stroke-width="1" x1="1332" x2="1248" y1="769" y2="818" /><line stroke="rgb(80%,80%,80%)" stroke-width="1" x1="1332" x2="1257" y1="769" y2="683" /><line stroke="rgb(80%,80%,80%)" stroke-width="1" x1="1332" x2="1397" y1="769" y2="671" /><line stroke="rgb(80%,80%,80%)" stroke-width="1" x1="343" x2="455" y1="491" y2="461" /><line stroke="rgb(80%,80%,80%)" stroke-width="1" x1="343" x2="219" y1="491" y2="565" /><line stroke="rgb(80%,80%,80%)" stroke-width="1" x1="1437" x2="1499" y1="805" y2="699" /><line stroke="rgb(80%,80%,80%)" stroke-width="1" x1="1437" x2="1508" y1="805" y2="818" /><line stroke="rgb(80%,80%,80%)" stroke-width="1" x1="1437" x2="1500" y1="805" y2="702" /><line stroke="rgb(80%,80%,80%)" stroke-width="1" x1="1437" x2="1363" y1="805" y2="797" /><line stroke="rgb(80%,80%,80%)" stroke-width="1" x1="1437" x2="1397" y1="805" y2="671" /><line stroke="rgb(80%,80%,80%)" stroke-width="1" x1="1437" x2="1533" y1="805" y2="806" /><line stroke="rgb(80%,80%,80%)" stroke-width="1" x1="1437" x2="1534" y1="805" y2="751" /><line stroke="rgb(80%,80%,80%)" stroke-width="1" x1="385" x2="418" y1="191" y2="288" /><line stroke="rgb(80%,80%,80%)" stroke-width="1" x1="955" x2="1021" y1="276" y2="389" /><line stroke="rgb(80%,80%,80%)" stroke-width="1" x1="955" x2="995" y1="276" y2="269" /><line stroke="rgb(80%,80%,80%)" stroke-width="1" x1="955" x2="815" y1="276" y2="270" /><line stroke="rgb(80%,80%,80%)" stroke-width="1" x1="955" x2="1028" y1="276" y2="217" /><line stroke="rgb(80%,80%,80%)" stroke-width="1" x1="1184" x2="1297" y1="459" y2="387" /><line stroke="rgb(80%,80%,80%)" stroke-width="1" x1="1184" x2="1264" y1="459" y2="563" /><line stroke="rgb(80%,80%,80%)" stroke-width="1" x1="1184" x2="1194" y1="459" y2="540" /><line stroke="rgb(80%,80%,80%)" stroke-width="1" x1="1184" x2="1059" y1="459" y2="524" /><line stroke="rgb(80%,80%,80%)" stroke-width="1" x1="1184" x2="1248" y1="459" y2="384" /><line stroke="rgb(80%,80%,80%)" stroke-width="1" x1="1184" x2="1282" y1="459" y2="358" /><line stroke="rgb(80%,80%,80%)" stroke-width="1" x1="1184" x2="1248" y1="459" y2="384" /><line stroke="rgb(80%,80%,80%)" stroke-width="1" x1="1337" x2="1363" y1="21" y2="91" /><line stroke="rgb(80%,80%,80%)" stroke-width="1" x1="1337" x2="1411" y1="21" y2="1" /><line stroke="rgb(80%,80%,80%)" stroke-width="1" x1="1337" x2="1266" y1="21" y2="85" /><line stroke="rgb(80%,80%,80%)" stroke-width="1" x1="252" x2="295" y1="747" y2="724" /><line stroke="rgb(80%,80%,80%)" stroke-width="1" x1="252" x2="216" y1="747" y2="763" /><line stroke="rgb(80%,80%,80%)" stroke-width="1" x1="252" x2="378" y1="747" y2="772" /><line stroke="rgb(80%,80%,80%)" stroke-width="1" x1="252" x2="200" y1="747" y2="839" /><line stroke="rgb(80%,80%,80%)" stroke-width="1" x1="252" x2="230" y1="747" y2="748" /><line stroke="rgb(80%,80%,80%)" stroke-width="1" x1="252" x2="317" y1="747" y2="676" /><line stroke="rgb(80%,80%,80%)" stroke-width="1" x1="252" x2="279" y1="747" y2="836" /><line stroke="rgb(80%,80%,80%)" stroke-width="1" x1="856" x2="891" y1="560" y2="460" /><line stroke="rgb(80%,80%,80%)" stroke-width="1" x1="856" x2="835" y1="560" y2="438" /><line stroke="rgb(80%,80%,80%)" stroke-width="1" x1="856" x2="883" y1="560" y2="609" /><line stroke="rgb(80%,80%,80%)" stroke-width="1" x1="474" x2="565" y1="58" y2="105" /><line stroke="rgb(80%,80%,80%)" stroke-width="1" x1="474" x2="492" y1="58" y2="40" /><line stroke="rgb(80%,80%,80%)" stroke-width="1" x1="510" x2="508" y1="681" y2="775" /><line stroke="rgb(80%,80%,80%)" stroke-width="1" x1="510" x2="401" y1="681" y2="729" /><line stroke="rgb(80%,80%,80%)" stroke-width="1" x1="510" x2="391" y1="681" y2="674" /><line stroke="rgb(80%,80%,80%)" stroke-width="1" x1="510" x2="502" y1="681" y2="766" /><line stroke="rgb(80%,80%,80%)" stroke-width="1" x1="510" x2="577" y1="681" y2="681" /><line stroke="rgb(80%,80%,80%)" stroke-width="1" x1="510" x2="556" y1="681" y2="573" /><line stroke="rgb(80%,80%,80%)" stroke-width="1" x1="510" x2="632" y1="681" y2="627" /><line stroke="rgb(80%,80%,80%)" stroke-width="1" x1="1499" x2="1508" y1="699" y2="818" /><line stroke="rgb(80%,80%,80%)" stroke-width="1" x1="1499" x2="1500" y1="699" y2="702" /><line stroke="rgb(80%,80%,80%)" stroke-width="1" x1="1499" x2="1522" y1="699" y2="592" /><line stroke="rgb(80%,80%,80%)" stroke-width="1" x1="1499" x2="1485" y1="699" y2="642" /><line stroke="rgb(80%,80%,80%)" stroke-width="1" x1="1499" x2="1434" y1="699" y2="648" /><line stroke="rgb(80%,80%,80%)" stroke-width="1" x1="1499" x2="1397" y1="699" y2="671" /><line stroke="rgb(80%,80%,80%)" stroke-width="1" x1="1499" x2="1533" y1="699" y2="806" /><line stroke="rgb(80%,80%,80%)" stroke-width="1" x1="1499" x2="1426" y1="699" y2="637" /><line stroke="rgb(80%,80%,80%)" stroke-width="1" x1="1499" x2="1534" y1="699" y2="751" /><line stroke="rgb(80%,80%,80%)" stroke-width="1" x1="975" x2="1076" y1="782" y2="791" /><line stroke="rgb(80%,80%,80%)" stroke-width="1" x1="975" x2="960" y1="782" y2="738" /><line stroke="rgb(80%,80%,80%)" stroke-width="1" x1="975" x2="863" y1="782" y2="742" /><line stroke="rgb(80%,80%,80%)" stroke-width="1" x1="975" x2="1012" y1="782" y2="645" /><line stroke="rgb(80%,80%,80%)" stroke-width="1" x1="975" x2="972" y1="782" y2="744" /><line stroke="rgb(80%,80%,80%)" stroke-width="1" x1="189" x2="200" y1="957" y2="839" /><line stroke="rgb(80%,80%,80%)" stroke-width="1" x1="189" x2="197" y1="957" y2="981" /><line stroke="rgb(80%,80%,80%)" stroke-width="1" x1="686" x2="562" y1="957" y2="875" /><line stroke="rgb(80%,80%,80%)" stroke-width="1" x1="686" x2="564" y1="957" y2="897" /><line stroke="rgb(80%,80%,80%)" stroke-width="1" x1="686" x2="779" y1="957" y2="929" /><line stroke="rgb(80%,80%,80%)" stroke-width="1" x1="686" x2="683" y1="957" y2="871" /><line stroke="rgb(80%,80%,80%)" stroke-width="1" x1="686" x2="725" y1="957" y2="986" /><line stroke="rgb(80%,80%,80%)" stroke-width="1" x1="686" x2="612" y1="957" y2="942" /><line stroke="rgb(80%,80%,80%)" stroke-width="1" x1="686" x2="663" y1="957" y2="974" /><line stroke="rgb(80%,80%,80%)" stroke-width="1" x1="562" x2="564" y1="875" y2="897" /><line stroke="rgb(80%,80%,80%)" stroke-width="1" x1="562" x2="508" y1="875" y2="775" /><line stroke="rgb(80%,80%,80%)" stroke-width="1" x1="562" x2="683" y1="875" y2="871" /><line stroke="rgb(80%,80%,80%)" stroke-width="1" x1="562" x2="612" y1="875" y2="942" /><line stroke="rgb(80%,80%,80%)" stroke-width="1" x1="562" x2="502" y1="875" y2="766" /><line stroke="rgb(80%,80%,80%)" stroke-width="1" x1="562" x2="663" y1="875" y2="974" /><line stroke="rgb(80%,80%,80%)" stroke-width="1" x1="562" x2="659" y1="875" y2="763" /><line stroke="rgb(80%,80%,80%)" stroke-width="1" x1="1267" x2="1183" y1="831" y2="838" /><line stroke="rgb(80%,80%,80%)" stroke-width="1" x1="1267" x2="1363" y1="831" y2="797" /><line stroke="rgb(80%,80%,80%)" stroke-width="1" x1="1267" x2="1248" y1="831" y2="818" /><line stroke="rgb(80%,80%,80%)" stroke-width="1" x1="1267" x2="1257" y1="831" y2="683" /><line stroke="rgb(80%,80%,80%)" stroke-width="1" x1="1267" x2="1136" y1="831" y2="829" /><line stroke="rgb(80%,80%,80%)" stroke-width="1" x1="1528" x2="1513" y1="130" y2="230" /><line stroke="rgb(80%,80%,80%)" stroke-width="1" x1="1528" x2="1495" y1="130" y2="232" /><line stroke="rgb(80%,80%,80%)" stroke-width="1" x1="1528" x2="1439" y1="130" y2="246" /><line stroke="rgb(80%,80%,80%)" stroke-width="1" x1="1508" x2="1500" y1="818" y2="702" /><line stroke="rgb(80%,80%,80%)" stroke-width="1" x1="1508" x2="1363" y1="818" y2="797" /><line stroke="rgb(80%,80%,80%)" stroke-width="1" x1="1508" x2="1533" y1="818" y2="806" /><line stroke="rgb(80%,80%,80%)" stroke-width="1" x1="1508" x2="1534" y1="818" y2="751" /><line stroke="rgb(80%,80%,80%)" stroke-width="1" x1="646" x2="565" y1="20" y2="105" /><line stroke="rgb(80%,80%,80%)" stroke-width="1" x1="646" x2="795" y1="20" y2="27" /><line stroke="rgb(80%,80%,80%)" stroke-width="1" x1="646" x2="698" y1="20" y2="112" /><line stroke="rgb(80%,80%,80%)" stroke-width="1" x1="840" x2="815" y1="166" y2="270" /><line stroke="rgb(80%,80%,80%)" stroke-width="1" x1="840" x2="804" y1="166" y2="98" /><line stroke="rgb(80%,80%,80%)" stroke-width="1" x1="840" x2="795" y1="166" y2="27" /><line stroke="rgb(80%,80%,80%)" stroke-width="1" x1="840" x2="951" y1="166" y2="80" /><line stroke="rgb(80%,80%,80%)" stroke-width="1" x1="840" x2="766" y1="166" y2="293" /><line stroke="rgb(80%,80%,80%)" stroke-width="1" x1="1297" x2="1371" y1="387" y2="472" /><line stroke="rgb(80%,80%,80%)" stroke-width="1" x1="1297" x2="1248" y1="387" y2="384" /><line stroke="rgb(80%,80%,80%)" stroke-width="1" x1="1297" x2="1400" y1="387" y2="282" /><line stroke="rgb(80%,80%,80%)" stroke-width="1" x1="1297" x2="1282" y1="387" y2="358" /><line stroke="rgb(80%,80%,80%)" stroke-width="1" x1="1297" x2="1409" y1="387" y2="386" /><line stroke="rgb(80%,80%,80%)" stroke-width="1" x1="1297" x2="1248" y1="387" y2="384" /><line stroke="rgb(80%,80%,80%)" stroke-width="1" x1="600" x2="520" y1="315" y2="343" /><line stroke="rgb(80%,80%,80%)" stroke-width="1" x1="600" x2="502" y1="315" y2="406" /><line stroke="rgb(80%,80%,80%)" stroke-width="1" x1="600" x2="484" y1="315" y2="406" /><line stroke="rgb(80%,80%,80%)" stroke-width="1" x1="600" x2="563" y1="315" y2="267" /><line stroke="rgb(80%,80%,80%)" stroke-width="1" x1="600" x2="463" y1="315" y2="348" /><line stroke="rgb(80%,80%,80%)" stroke-width="1" x1="13" x2="34" y1="241" y2="205" /><line stroke="rgb(80%,80%,80%)" stroke-width="1" x1="776" x2="815" y1="345" y2="270" /><line stroke="rgb(80%,80%,80%)" stroke-width="1" x1="776" x2="794" y1="345" y2="392" /><line stroke="rgb(80%,80%,80%)" stroke-width="1" x1="776" x2="709" y1="345" y2="455" /><line stroke="rgb(80%,80%,80%)" stroke-width="1" x1="776" x2="835" y1="345" y2="438" /><line stroke="rgb(80%,80%,80%)" stroke-width="1" x1="776" x2="766" y1="345" y2="293" /><line stroke="rgb(80%,80%,80%)" stroke-width="1" x1="564" x2="508" y1="897" y2="775" /><line stroke="rgb(80%,80%,80%)" stroke-width="1" x1="564" x2="683" y1="897" y2="871" /><line stroke="rgb(80%,80%,80%)" stroke-width="1" x1="564" x2="612" y1="897" y2="942" /><line stroke="rgb(80%,80%,80%)" stroke-width="1" x1="564" x2="502" y1="897" y2="766" /><line stroke="rgb(80%,80%,80%)" stroke-width="1" x1="564" x2="663" y1="897" y2="974" /><line stroke="rgb(80%,80%,80%)" stroke-width="1" x1="1363" x2="1411" y1="91" y2="1" /><line stroke="rgb(80%,80%,80%)" stroke-width="1" x1="1363" x2="1266" y1="91" y2="85" /><line stroke="rgb(80%,80%,80%)" stroke-width="1" x1="1363" x2="1254" y1="91" y2="189" /><line stroke="rgb(80%,80%,80%)" stroke-width="1" x1="1363" x2="1224" y1="91" y2="123" /><line stroke="rgb(80%,80%,80%)" stroke-width="1" x1="1390" x2="1275" y1="955" y2="1016" /><line stroke="rgb(80%,80%,80%)" stroke-width="1" x1="1478" x2="1371" y1="427" y2="472" /><line stroke="rgb(80%,80%,80%)" stroke-width="1" x1="1478" x2="1520" y1="427" y2="441" /><line stroke="rgb(80%,80%,80%)" stroke-width="1" x1="1478" x2="1409" y1="427" y2="386" /><line stroke="rgb(80%,80%,80%)" stroke-width="1" x1="508" x2="401" y1="775" y2="729" /><line stroke="rgb(80%,80%,80%)" stroke-width="1" x1="508" x2="378" y1="775" y2="772" /><line stroke="rgb(80%,80%,80%)" stroke-width="1" x1="508" x2="502" y1="775" y2="766" /><line stroke="rgb(80%,80%,80%)" stroke-width="1" x1="508" x2="397" y1="775" y2="870" /><line stroke="rgb(80%,80%,80%)" stroke-width="1" x1="508" x2="577" y1="775" y2="681" /><line stroke="rgb(80%,80%,80%)" stroke-width="1" x1="34" x2="161" y1="205" y2="201" /><line stroke="rgb(80%,80%,80%)" stroke-width="1" x1="1104" x2="1076" y1="931" y2="791" /><line stroke="rgb(80%,80%,80%)" stroke-width="1" x1="1104" x2="1152" y1="931" y2="1003" /><line stroke="rgb(80%,80%,80%)" stroke-width="1" x1="1104" x2="1183" y1="931" y2="838" /><line stroke="rgb(80%,80%,80%)" stroke-width="1" x1="1104" x2="1136" y1="931" y2="829" /><line stroke="rgb(80%,80%,80%)" stroke-width="1" x1="1021" x2="995" y1="389" y2="269" /><line stroke="rgb(80%,80%,80%)" stroke-width="1" x1="1021" x2="891" y1="389" y2="460" /><line stroke="rgb(80%,80%,80%)" stroke-width="1" x1="1021" x2="1059" y1="389" y2="524" /><line stroke="rgb(80%,80%,80%)" stroke-width="1" x1="565" x2="492" y1="105" y2="40" /><line stroke="rgb(80%,80%,80%)" stroke-width="1" x1="565" x2="698" y1="105" y2="112" /><line stroke="rgb(80%,80%,80%)" stroke-width="1" x1="1500" x2="1522" y1="702" y2="592" /><line stroke="rgb(80%,80%,80%)" stroke-width="1" x1="1500" x2="1485" y1="702" y2="642" /><line stroke="rgb(80%,80%,80%)" stroke-width="1" x1="1500" x2="1434" y1="702" y2="648" /><line stroke="rgb(80%,80%,80%)" stroke-width="1" x1="1500" x2="1397" y1="702" y2="671" /><line stroke="rgb(80%,80%,80%)" stroke-width="1" x1="1500" x2="1533" y1="702" y2="806" /><line stroke="rgb(80%,80%,80%)" stroke-width="1" x1="1500" x2="1426" y1="702" y2="637" /><line stroke="rgb(80%,80%,80%)" stroke-width="1" x1="1500" x2="1534" y1="702" y2="751" /><line stroke="rgb(80%,80%,80%)" stroke-width="1" x1="401" x2="295" y1="729" y2="724" /><line stroke="rgb(80%,80%,80%)" stroke-width="1" x1="401" x2="391" y1="729" y2="674" /><line stroke="rgb(80%,80%,80%)" stroke-width="1" x1="401" x2="378" y1="729" y2="772" /><line stroke="rgb(80%,80%,80%)" stroke-width="1" x1="401" x2="502" y1="729" y2="766" /><line stroke="rgb(80%,80%,80%)" stroke-width="1" x1="401" x2="397" y1="729" y2="870" /><line stroke="rgb(80%,80%,80%)" stroke-width="1" x1="401" x2="317" y1="729" y2="676" /><line stroke="rgb(80%,80%,80%)" stroke-width="1" x1="161" x2="202" y1="201" y2="183" /><line stroke="rgb(80%,80%,80%)" stroke-width="1" x1="161" x2="186" y1="201" y2="325" /><line stroke="rgb(80%,80%,80%)" stroke-width="1" x1="995" x2="1051" y1="269" y2="134" /><line stroke="rgb(80%,80%,80%)" stroke-width="1" x1="995" x2="1028" y1="269" y2="217" /><line stroke="rgb(80%,80%,80%)" stroke-width="1" x1="815" x2="794" y1="270" y2="392" /><line stroke="rgb(80%,80%,80%)" stroke-width="1" x1="815" x2="766" y1="270" y2="293" /><line stroke="rgb(80%,80%,80%)" stroke-width="1" x1="455" x2="520" y1="461" y2="343" /><line stroke="rgb(80%,80%,80%)" stroke-width="1" x1="455" x2="502" y1="461" y2="406" /><line stroke="rgb(80%,80%,80%)" stroke-width="1" x1="455" x2="484" y1="461" y2="406" /><line stroke="rgb(80%,80%,80%)" stroke-width="1" x1="455" x2="463" y1="461" y2="348" /><line stroke="rgb(80%,80%,80%)" stroke-width="1" x1="455" x2="402" y1="461" y2="345" /><line stroke="rgb(80%,80%,80%)" stroke-width="1" x1="1275" x2="1152" y1="1016" y2="1003" /><line stroke="rgb(80%,80%,80%)" stroke-width="1" x1="295" x2="216" y1="724" y2="763" /><line stroke="rgb(80%,80%,80%)" stroke-width="1" x1="295" x2="391" y1="724" y2="674" /><line stroke="rgb(80%,80%,80%)" stroke-width="1" x1="295" x2="378" y1="724" y2="772" /><line stroke="rgb(80%,80%,80%)" stroke-width="1" x1="295" x2="200" y1="724" y2="839" /><line stroke="rgb(80%,80%,80%)" stroke-width="1" x1="295" x2="230" y1="724" y2="748" /><line stroke="rgb(80%,80%,80%)" stroke-width="1" x1="295" x2="317" y1="724" y2="676" /><line stroke="rgb(80%,80%,80%)" stroke-width="1" x1="295" x2="279" y1="724" y2="836" /><line stroke="rgb(80%,80%,80%)" stroke-width="1" x1="719" x2="683" y1="748" y2="871" /><line stroke="rgb(80%,80%,80%)" stroke-width="1" x1="719" x2="863" y1="748" y2="742" /><line stroke="rgb(80%,80%,80%)" stroke-width="1" x1="719" x2="632" y1="748" y2="627" /><line stroke="rgb(80%,80%,80%)" stroke-width="1" x1="719" x2="729" y1="748" y2="671" /><line stroke="rgb(80%,80%,80%)" stroke-width="1" x1="719" x2="659" y1="748" y2="763" /><line stroke="rgb(80%,80%,80%)" stroke-width="1" x1="337" x2="378" y1="878" y2="772" /><line stroke="rgb(80%,80%,80%)" stroke-width="1" x1="337" x2="200" y1="878" y2="839" /><line stroke="rgb(80%,80%,80%)" stroke-width="1" x1="337" x2="397" y1="878" y2="870" /><line stroke="rgb(80%,80%,80%)" stroke-width="1" x1="337" x2="279" y1="878" y2="836" /><line stroke="rgb(80%,80%,80%)" stroke-width="1" x1="1076" x2="960" y1="791" y2="738" /><line stroke="rgb(80%,80%,80%)" stroke-width="1" x1="1076" x2="1183" y1="791" y2="838" /><line stroke="rgb(80%,80%,80%)" stroke-width="1" x1="1076" x2="972" y1="791" y2="744" /><line stroke="rgb(80%,80%,80%)" stroke-width="1" x1="1076" x2="1136" y1="791" y2="829" /><line stroke="rgb(80%,80%,80%)" stroke-width="1" x1="216" x2="200" y1="763" y2="839" /><line stroke="rgb(80%,80%,80%)" stroke-width="1" x1="216" x2="230" y1="763" y2="748" /><line stroke="rgb(80%,80%,80%)" stroke-width="1" x1="216" x2="317" y1="763" y2="676" /><line stroke="rgb(80%,80%,80%)" stroke-width="1" x1="216" x2="279" y1="763" y2="836" /><line stroke="rgb(80%,80%,80%)" stroke-width="1" x1="187" x2="122" y1="379" y2="400" /><line stroke="rgb(80%,80%,80%)" stroke-width="1" x1="187" x2="186" y1="379" y2="325" /><line stroke="rgb(80%,80%,80%)" stroke-width="1" x1="1180" x2="1056" y1="14" y2="47" /><line stroke="rgb(80%,80%,80%)" stroke-width="1" x1="1180" x2="1266" y1="14" y2="85" /><line stroke="rgb(80%,80%,80%)" stroke-width="1" x1="1180" x2="1153" y1="14" y2="52" /><line stroke="rgb(80%,80%,80%)" stroke-width="1" x1="1180" x2="1224" y1="14" y2="123" /><line stroke="rgb(80%,80%,80%)" stroke-width="1" x1="64" x2="200" y1="856" y2="839" /><line stroke="rgb(80%,80%,80%)" stroke-width="1" x1="520" x2="418" y1="343" y2="288" /><line stroke="rgb(80%,80%,80%)" stroke-width="1" x1="520" x2="502" y1="343" y2="406" /><line stroke="rgb(80%,80%,80%)" stroke-width="1" x1="520" x2="484" y1="343" y2="406" /><line stroke="rgb(80%,80%,80%)" stroke-width="1" x1="520" x2="563" y1="343" y2="267" /><line stroke="rgb(80%,80%,80%)" stroke-width="1" x1="520" x2="463" y1="343" y2="348" /><line stroke="rgb(80%,80%,80%)" stroke-width="1" x1="520" x2="402" y1="343" y2="345" /><line stroke="rgb(80%,80%,80%)" stroke-width="1" x1="647" x2="556" y1="471" y2="573" /><line stroke="rgb(80%,80%,80%)" stroke-width="1" x1="647" x2="709" y1="471" y2="455" /><line stroke="rgb(80%,80%,80%)" stroke-width="1" x1="1086" x2="1017" y1="138" y2="40" /><line stroke="rgb(80%,80%,80%)" stroke-width="1" x1="1086" x2="1051" y1="138" y2="134" /><line stroke="rgb(80%,80%,80%)" stroke-width="1" x1="1086" x2="1056" y1="138" y2="47" /><line stroke="rgb(80%,80%,80%)" stroke-width="1" x1="1086" x2="1028" y1="138" y2="217" /><line stroke="rgb(80%,80%,80%)" stroke-width="1" x1="1086" x2="1020" y1="138" y2="95" /><line stroke="rgb(80%,80%,80%)" stroke-width="1" x1="1086" x2="951" y1="138" y2="80" /><line stroke="rgb(80%,80%,80%)" stroke-width="1" x1="1086" x2="1153" y1="138" y2="52" /><line stroke="rgb(80%,80%,80%)" stroke-width="1" x1="1086" x2="1224" y1="138" y2="123" /><line stroke="rgb(80%,80%,80%)" stroke-width="1" x1="1522" x2="1485" y1="592" y2="642" /><line stroke="rgb(80%,80%,80%)" stroke-width="1" x1="1522" x2="1434" y1="592" y2="648" /><line stroke="rgb(80%,80%,80%)" stroke-width="1" x1="1522" x2="1397" y1="592" y2="671" /><line stroke="rgb(80%,80%,80%)" stroke-width="1" x1="1522" x2="1426" y1="592" y2="637" /><line stroke="rgb(80%,80%,80%)" stroke-width="1" x1="391" x2="378" y1="674" y2="772" /><line stroke="rgb(80%,80%,80%)" stroke-width="1" x1="391" x2="502" y1="674" y2="766" /><line stroke="rgb(80%,80%,80%)" stroke-width="1" x1="391" x2="317" y1="674" y2="676" /><line stroke="rgb(80%,80%,80%)" stroke-width="1" x1="418" x2="502" y1="288" y2="406" /><line stroke="rgb(80%,80%,80%)" stroke-width="1" x1="418" x2="484" y1="288" y2="406" /><line stroke="rgb(80%,80%,80%)" stroke-width="1" x1="418" x2="563" y1="288" y2="267" /><line stroke="rgb(80%,80%,80%)" stroke-width="1" x1="418" x2="463" y1="288" y2="348" /><line stroke="rgb(80%,80%,80%)" stroke-width="1" x1="418" x2="402" y1="288" y2="345" /><line stroke="rgb(80%,80%,80%)" stroke-width="1" x1="378" x2="502" y1="772" y2="766" /><line stroke="rgb(80%,80%,80%)" stroke-width="1" x1="378" x2="397" y1="772" y2="870" /><line stroke="rgb(80%,80%,80%)" stroke-width="1" x1="378" x2="230" y1="772" y2="748" /><line stroke="rgb(80%,80%,80%)" stroke-width="1" x1="378" x2="317" y1="772" y2="676" /><line stroke="rgb(80%,80%,80%)" stroke-width="1" x1="378" x2="279" y1="772" y2="836" /><line stroke="rgb(80%,80%,80%)" stroke-width="1" x1="1513" x2="1400" y1="230" y2="282" /><line stroke="rgb(80%,80%,80%)" stroke-width="1" x1="1513" x2="1495" y1="230" y2="232" /><line stroke="rgb(80%,80%,80%)" stroke-width="1" x1="1513" x2="1439" y1="230" y2="246" /><line stroke="rgb(80%,80%,80%)" stroke-width="1" x1="1017" x2="1051" y1="40" y2="134" /><line stroke="rgb(80%,80%,80%)" stroke-width="1" x1="1017" x2="1056" y1="40" y2="47" /><line stroke="rgb(80%,80%,80%)" stroke-width="1" x1="1017" x2="1020" y1="40" y2="95" /><line stroke="rgb(80%,80%,80%)" stroke-width="1" x1="1017" x2="951" y1="40" y2="80" /><line stroke="rgb(80%,80%,80%)" stroke-width="1" x1="1017" x2="1153" y1="40" y2="52" /><line stroke="rgb(80%,80%,80%)" stroke-width="1" x1="1051" x2="1056" y1="134" y2="47" /><line stroke="rgb(80%,80%,80%)" stroke-width="1" x1="1051" x2="1028" y1="134" y2="217" /><line stroke="rgb(80%,80%,80%)" stroke-width="1" x1="1051" x2="1020" y1="134" y2="95" /><line stroke="rgb(80%,80%,80%)" stroke-width="1" x1="1051" x2="951" y1="134" y2="80" /><line stroke="rgb(80%,80%,80%)" stroke-width="1" x1="1051" x2="1153" y1="134" y2="52" /><line stroke="rgb(80%,80%,80%)" stroke-width="1" x1="200" x2="230" y1="839" y2="748" /><line stroke="rgb(80%,80%,80%)" stroke-width="1" x1="200" x2="279" y1="839" y2="836" /><line stroke="rgb(80%,80%,80%)" stroke-width="1" x1="200" x2="197" y1="839" y2="981" /><line stroke="rgb(80%,80%,80%)" stroke-width="1" x1="779" x2="683" y1="929" y2="871" /><line stroke="rgb(80%,80%,80%)" stroke-width="1" x1="779" x2="725" y1="929" y2="986" /><line stroke="rgb(80%,80%,80%)" stroke-width="1" x1="779" x2="663" y1="929" y2="974" /><line stroke="rgb(80%,80%,80%)" stroke-width="1" x1="779" x2="854" y1="929" y2="996" /><line stroke="rgb(80%,80%,80%)" stroke-width="1" x1="1056" x2="1020" y1="47" y2="95" /><line stroke="rgb(80%,80%,80%)" stroke-width="1" x1="1056" x2="951" y1="47" y2="80" /><line stroke="rgb(80%,80%,80%)" stroke-width="1" x1="1056" x2="1153" y1="47" y2="52" /><line stroke="rgb(80%,80%,80%)" stroke-width="1" x1="502" x2="484" y1="406" y2="406" /><line stroke="rgb(80%,80%,80%)" stroke-width="1" x1="502" x2="463" y1="406" y2="348" /><line stroke="rgb(80%,80%,80%)" stroke-width="1" x1="502" x2="402" y1="406" y2="345" /><line stroke="rgb(80%,80%,80%)" stroke-width="1" x1="804" x2="795" y1="98" y2="27" /><line stroke="rgb(80%,80%,80%)" stroke-width="1" x1="804" x2="951" y1="98" y2="80" /><line stroke="rgb(80%,80%,80%)" stroke-width="1" x1="804" x2="698" y1="98" y2="112" /><line stroke="rgb(80%,80%,80%)" stroke-width="1" x1="683" x2="725" y1="871" y2="986" /><line stroke="rgb(80%,80%,80%)" stroke-width="1" x1="683" x2="612" y1="871" y2="942" /><line stroke="rgb(80%,80%,80%)" stroke-width="1" x1="683" x2="663" y1="871" y2="974" /><line stroke="rgb(80%,80%,80%)" stroke-width="1" x1="683" x2="659" y1="871" y2="763" /><line stroke="rgb(80%,80%,80%)" stroke-width="1" x1="725" x2="612" y1="986" y2="942" /><line stroke="rgb(80%,80%,80%)" stroke-width="1" x1="725" x2="663" y1="986" y2="974" /><line stroke="rgb(80%,80%,80%)" stroke-width="1" x1="725" x2="854" y1="986" y2="996" /><line stroke="rgb(80%,80%,80%)" stroke-width="1" x1="960" x2="863" y1="738" y2="742" /><line stroke="rgb(80%,80%,80%)" stroke-width="1" x1="960" x2="1012" y1="738" y2="645" /><line stroke="rgb(80%,80%,80%)" stroke-width="1" x1="960" x2="972" y1="738" y2="744" /><line stroke="rgb(80%,80%,80%)" stroke-width="1" x1="612" x2="663" y1="942" y2="974" /><line stroke="rgb(80%,80%,80%)" stroke-width="1" x1="1485" x2="1354" y1="642" y2="639" /><line stroke="rgb(80%,80%,80%)" stroke-width="1" x1="1485" x2="1434" y1="642" y2="648" /><line stroke="rgb(80%,80%,80%)" stroke-width="1" x1="1485" x2="1397" y1="642" y2="671" /><line stroke="rgb(80%,80%,80%)" stroke-width="1" x1="1485" x2="1426" y1="642" y2="637" /><line stroke="rgb(80%,80%,80%)" stroke-width="1" x1="1485" x2="1534" y1="642" y2="751" /><line stroke="rgb(80%,80%,80%)" stroke-width="1" x1="1028" x2="1020" y1="217" y2="95" /><line stroke="rgb(80%,80%,80%)" stroke-width="1" x1="502" x2="397" y1="766" y2="870" /><line stroke="rgb(80%,80%,80%)" stroke-width="1" x1="502" x2="577" y1="766" y2="681" /><line stroke="rgb(80%,80%,80%)" stroke-width="1" x1="397" x2="279" y1="870" y2="836" /><line stroke="rgb(80%,80%,80%)" stroke-width="1" x1="794" x2="891" y1="392" y2="460" /><line stroke="rgb(80%,80%,80%)" stroke-width="1" x1="794" x2="709" y1="392" y2="455" /><line stroke="rgb(80%,80%,80%)" stroke-width="1" x1="794" x2="835" y1="392" y2="438" /><line stroke="rgb(80%,80%,80%)" stroke-width="1" x1="794" x2="766" y1="392" y2="293" /><line stroke="rgb(80%,80%,80%)" stroke-width="1" x1="891" x2="835" y1="460" y2="438" /><line stroke="rgb(80%,80%,80%)" stroke-width="1" x1="891" x2="883" y1="460" y2="609" /><line stroke="rgb(80%,80%,80%)" stroke-width="1" x1="863" x2="972" y1="742" y2="744" /><line stroke="rgb(80%,80%,80%)" stroke-width="1" x1="863" x2="883" y1="742" y2="609" /><line stroke="rgb(80%,80%,80%)" stroke-width="1" x1="1264" x2="1194" y1="563" y2="540" /><line stroke="rgb(80%,80%,80%)" stroke-width="1" x1="1264" x2="1354" y1="563" y2="639" /><line stroke="rgb(80%,80%,80%)" stroke-width="1" x1="1264" x2="1371" y1="563" y2="472" /><line stroke="rgb(80%,80%,80%)" stroke-width="1" x1="1264" x2="1257" y1="563" y2="683" /><line stroke="rgb(80%,80%,80%)" stroke-width="1" x1="1264" x2="1136" y1="563" y2="612" /><line stroke="rgb(80%,80%,80%)" stroke-width="1" x1="1020" x2="951" y1="95" y2="80" /><line stroke="rgb(80%,80%,80%)" stroke-width="1" x1="1020" x2="1153" y1="95" y2="52" /><line stroke="rgb(80%,80%,80%)" stroke-width="1" x1="484" x2="463" y1="406" y2="348" /><line stroke="rgb(80%,80%,80%)" stroke-width="1" x1="484" x2="402" y1="406" y2="345" /><line stroke="rgb(80%,80%,80%)" stroke-width="1" x1="230" x2="317" y1="748" y2="676" /><line stroke="rgb(80%,80%,80%)" stroke-width="1" x1="230" x2="279" y1="748" y2="836" /><line stroke="rgb(80%,80%,80%)" stroke-width="1" x1="1194" x2="1059" y1="540" y2="524" /><line stroke="rgb(80%,80%,80%)" stroke-width="1" x1="1194" x2="1136" y1="540" y2="612" /><line stroke="rgb(80%,80%,80%)" stroke-width="1" x1="1059" x2="1012" y1="524" y2="645" /><line stroke="rgb(80%,80%,80%)" stroke-width="1" x1="1059" x2="1136" y1="524" y2="612" /><line stroke="rgb(80%,80%,80%)" stroke-width="1" x1="1183" x2="1248" y1="838" y2="818" /><line stroke="rgb(80%,80%,80%)" stroke-width="1" x1="1183" x2="1136" y1="838" y2="829" /><line stroke="rgb(80%,80%,80%)" stroke-width="1" x1="1266" x2="1254" y1="85" y2="189" /><line stroke="rgb(80%,80%,80%)" stroke-width="1" x1="1266" x2="1153" y1="85" y2="52" /><line stroke="rgb(80%,80%,80%)" stroke-width="1" x1="1266" x2="1224" y1="85" y2="123" /><line stroke="rgb(80%,80%,80%)" stroke-width="1" x1="577" x2="556" y1="681" y2="573" /><line stroke="rgb(80%,80%,80%)" stroke-width="1" x1="577" x2="632" y1="681" y2="627" /><line stroke="rgb(80%,80%,80%)" stroke-width="1" x1="577" x2="659" y1="681" y2="763" /><line stroke="rgb(80%,80%,80%)" stroke-width="1" x1="556" x2="632" y1="573" y2="627" /><line stroke="rgb(80%,80%,80%)" stroke-width="1" x1="1012" x2="972" y1="645" y2="744" /><line stroke="rgb(80%,80%,80%)" stroke-width="1" x1="1012" x2="1136" y1="645" y2="612" /><line stroke="rgb(80%,80%,80%)" stroke-width="1" x1="1012" x2="883" y1="645" y2="609" /><line stroke="rgb(80%,80%,80%)" stroke-width="1" x1="795" x2="698" y1="27" y2="112" /><line stroke="rgb(80%,80%,80%)" stroke-width="1" x1="1363" x2="1248" y1="797" y2="818" /><line stroke="rgb(80%,80%,80%)" stroke-width="1" x1="1363" x2="1397" y1="797" y2="671" /><line stroke="rgb(80%,80%,80%)" stroke-width="1" x1="1354" x2="1434" y1="639" y2="648" /><line stroke="rgb(80%,80%,80%)" stroke-width="1" x1="1354" x2="1257" y1="639" y2="683" /><line stroke="rgb(80%,80%,80%)" stroke-width="1" x1="1354" x2="1397" y1="639" y2="671" /><line stroke="rgb(80%,80%,80%)" stroke-width="1" x1="1354" x2="1426" y1="639" y2="637" /><line stroke="rgb(80%,80%,80%)" stroke-width="1" x1="1371" x2="1282" y1="472" y2="358" /><line stroke="rgb(80%,80%,80%)" stroke-width="1" x1="1371" x2="1409" y1="472" y2="386" /><line stroke="rgb(80%,80%,80%)" stroke-width="1" x1="1254" x2="1224" y1="189" y2="123" /><line stroke="rgb(80%,80%,80%)" stroke-width="1" x1="1248" x2="1282" y1="384" y2="358" /><line stroke="rgb(80%,80%,80%)" stroke-width="1" x1="1248" x2="1248" y1="384" y2="384" /><line stroke="rgb(80%,80%,80%)" stroke-width="1" x1="1400" x2="1282" y1="282" y2="358" /><line stroke="rgb(80%,80%,80%)" stroke-width="1" x1="1400" x2="1495" y1="282" y2="232" /><line stroke="rgb(80%,80%,80%)" stroke-width="1" x1="1400" x2="1409" y1="282" y2="386" /><line stroke="rgb(80%,80%,80%)" stroke-width="1" x1="1400" x2="1439" y1="282" y2="246" /><line stroke="rgb(80%,80%,80%)" stroke-width="1" x1="632" x2="729" y1="627" y2="671" /><line stroke="rgb(80%,80%,80%)" stroke-width="1" x1="632" x2="659" y1="627" y2="763" /><line stroke="rgb(80%,80%,80%)" stroke-width="1" x1="1282" x2="1409" y1="358" y2="386" /><line stroke="rgb(80%,80%,80%)" stroke-width="1" x1="1282" x2="1248" y1="358" y2="384" /><line stroke="rgb(80%,80%,80%)" stroke-width="1" x1="709" x2="835" y1="455" y2="438" /><line stroke="rgb(80%,80%,80%)" stroke-width="1" x1="1434" x2="1397" y1="648" y2="671" /><line stroke="rgb(80%,80%,80%)" stroke-width="1" x1="1434" x2="1426" y1="648" y2="637" /><line stroke="rgb(80%,80%,80%)" stroke-width="1" x1="1434" x2="1534" y1="648" y2="751" /><line stroke="rgb(80%,80%,80%)" stroke-width="1" x1="317" x2="219" y1="676" y2="565" /><line stroke="rgb(80%,80%,80%)" stroke-width="1" x1="1248" x2="1257" y1="818" y2="683" /><line stroke="rgb(80%,80%,80%)" stroke-width="1" x1="1248" x2="1136" y1="818" y2="829" /><line stroke="rgb(80%,80%,80%)" stroke-width="1" x1="1257" x2="1397" y1="683" y2="671" /><line stroke="rgb(80%,80%,80%)" stroke-width="1" x1="1257" x2="1136" y1="683" y2="612" /><line stroke="rgb(80%,80%,80%)" stroke-width="1" x1="1397" x2="1426" y1="671" y2="637" /><line stroke="rgb(80%,80%,80%)" stroke-width="1" x1="1495" x2="1439" y1="232" y2="246" /><line stroke="rgb(80%,80%,80%)" stroke-width="1" x1="1520" x2="1409" y1="441" y2="386" /><line stroke="rgb(80%,80%,80%)" stroke-width="1" x1="563" x2="463" y1="267" y2="348" /><line stroke="rgb(80%,80%,80%)" stroke-width="1" x1="1533" x2="1534" y1="806" y2="751" /><line stroke="rgb(80%,80%,80%)" stroke-width="1" x1="1409" x2="1439" y1="386" y2="246" /><line stroke="rgb(80%,80%,80%)" stroke-width="1" x1="1" x2="143" y1="641" y2="608" /><line stroke="rgb(80%,80%,80%)" stroke-width="1" x1="219" x2="143" y1="565" y2="608" /><line stroke="rgb(80%,80%,80%)" stroke-width="1" x1="854" x2="954" y1="996" y2="931" /><line stroke="rgb(80%,80%,80%)" stroke-width="1" x1="1153" x2="1224" y1="52" y2="123" /><line stroke="rgb(80%,80%,80%)" stroke-width="1" x1="729" x2="659" y1="671" y2="763" /><line stroke="rgb(80%,80%,80%)" stroke-width="1" x1="202" x2="186" y1="183" y2="325" /><line stroke="rgb(80%,80%,80%)" stroke-width="1" x1="122" x2="186" y1="400" y2="325" /><line stroke="rgb(80%,80%,80%)" stroke-width="1" x1="463" x2="402" y1="348" y2="345" /></svg>